<svg width="69" height="54" viewBox="0 0 69 54" fill="none" xmlns="http://www.w3.org/2000/svg">
<path d="M45.2925 20.7002L46.1936 21.1338L45.2925 20.7002ZM58.0403 4.05693L59.0223 4.24592L59.1723 3.46638L58.4471 3.14342L58.0403 4.05693ZM2.47345 52.2884L1.83057 53.0544L2.47345 52.2884ZM15.2406 45.1424C15.1878 41.1363 16.0356 37.5176 18.3381 34.9053C20.621 32.315 24.4979 30.5313 30.9106 30.5313V28.5313C24.1315 28.5313 19.619 30.4272 16.8377 33.5829C14.0759 36.7164 13.1846 40.9098 13.2408 45.1688L15.2406 45.1424ZM30.9106 30.5313C33.9334 30.5313 36.8443 30.1262 39.4735 28.7142C42.1192 27.2933 44.3775 24.9084 46.1936 21.1338L44.3914 20.2666C42.7208 23.7386 40.7299 25.7693 38.5272 26.9522C36.3079 28.1442 33.7712 28.5313 30.9106 28.5313V30.5313ZM46.1936 21.1338C47.3635 18.7022 48.155 16.4922 48.8265 14.5588C49.5062 12.6016 50.0432 10.9919 50.7211 9.64342C51.3857 8.32143 52.1544 7.31966 53.2523 6.57883C54.3582 5.83257 55.8819 5.2947 58.1472 5.0512L57.9334 3.06265C55.4591 3.32863 53.5916 3.93711 52.1336 4.92099C50.6675 5.91029 49.6997 7.22245 48.9342 8.7451C48.1821 10.2412 47.5955 12.0069 46.9371 13.9027C46.2705 15.8223 45.5094 17.9429 44.3914 20.2666L46.1936 21.1338ZM50.7693 1.91351L57.6335 4.97043L58.4471 3.14342L51.5829 0.0864937L50.7693 1.91351ZM57.7148 11.0391L59.0223 4.24592L57.0583 3.86793L55.7508 10.6611L57.7148 11.0391ZM5.41356 1.19008C7.2487 10.6688 8.17621 25.0153 7.69103 36.182C7.44762 41.7843 6.85191 46.4819 5.8844 49.3526C5.38694 50.8285 4.86238 51.5964 4.43752 51.877C4.26613 51.9901 4.12517 52.0157 3.97183 51.9918C3.79131 51.9637 3.50768 51.8509 3.11633 51.5224L1.83057 53.0544C2.39473 53.5279 3.00675 53.8656 3.66396 53.968C4.34835 54.0746 4.98721 53.9107 5.53966 53.5459C6.56248 52.8704 7.2617 51.5281 7.77965 49.9913C8.84294 46.8365 9.44454 41.8988 9.68915 36.2688C10.18 24.9708 9.24645 10.4653 7.3771 0.809923L5.41356 1.19008ZM3.11633 51.5224C2.63801 51.121 2.52045 50.88 2.50119 50.8097C2.49727 50.7954 2.50427 50.8173 2.49417 50.8501C2.48628 50.8756 2.4829 50.858 2.53927 50.8019C2.67135 50.6704 2.97923 50.4768 3.57038 50.2733C4.14129 50.0767 4.89038 49.8993 5.81426 49.7456C9.53133 49.1271 15.5977 48.9647 22.804 49.085C37.1799 49.325 55.7807 50.6812 68.4285 51.5876L68.5715 49.5927C55.9417 48.6876 37.2799 47.3264 22.8374 47.0853C15.6344 46.965 9.40253 47.121 5.48599 47.7727C4.50147 47.9365 3.63369 48.1362 2.91918 48.3823C2.22491 48.6213 1.5788 48.936 1.12824 49.3845C0.625589 49.8849 0.361867 50.5703 0.572291 51.3382C0.752968 51.9976 1.24658 52.5642 1.83057 53.0544L3.11633 51.5224Z" fill="#0429D7"/>
</svg>
