<svg width="91" height="73" viewBox="0 0 91 73" fill="none" xmlns="http://www.w3.org/2000/svg">
<path d="M20.0085 24.4168L20.7873 23.7896L20.0085 24.4168ZM15.5746 49.2532L16.2157 48.4857L15.5746 49.2532ZM42.3734 10.6185L42.3054 9.62081L42.3734 10.6185ZM65.8038 67.7421L65.11 67.0219L65.8038 67.7421ZM71.6646 21.2236L72.1176 22.1151L71.6646 21.2236ZM61.7244 55.9945L62.4764 56.6536L62.504 56.6222L62.5288 56.5885L61.7244 55.9945ZM84.0896 39.6734L84.8733 40.2946L84.0896 39.6734ZM84.7147 35.7962L83.7257 35.9441L84.7147 35.7962ZM85.2411 27.8123L84.3592 28.2837L85.2411 27.8123ZM42.2423 25.5841L41.2434 25.6323L42.2423 25.5841ZM23.4055 65.2839L23.4878 66.2805L23.4055 65.2839ZM21.6953 64.3133L20.8436 64.8373L21.6953 64.3133ZM2.72708 71.8836C1.18271 58.6749 7.8068 49.9476 13.9061 42.9389C16.9081 39.4892 19.9018 36.3366 21.4996 33.3392C22.3143 31.8109 22.817 30.2394 22.7547 28.6095C22.6918 26.9634 22.057 25.3661 20.7873 23.7896L19.2297 25.0441C20.279 26.347 20.7125 27.5424 20.7562 28.6859C20.8005 29.8454 20.448 31.0602 19.7347 32.3984C18.2766 35.1337 15.5228 38.0345 12.3974 41.6259C6.24189 48.6992 -0.909283 58.0046 0.740614 72.1159L2.72708 71.8836ZM20.7873 23.7896C18.3724 20.791 15.1784 19.5733 12.1375 19.8679C9.11771 20.1605 6.33013 21.9374 4.68654 24.7558C1.34515 30.4855 2.88819 39.9585 14.9335 50.0206L16.2157 48.4857C4.476 38.6788 3.80693 30.2342 6.41422 25.7633C7.74497 23.4814 9.97193 22.0871 12.3304 21.8586C14.6677 21.6321 17.2156 22.5432 19.2297 25.0441L20.7873 23.7896ZM14.9335 50.0206C21.0271 55.111 23.5487 58.8995 24.2608 61.3072C24.6139 62.5012 24.4941 63.2509 24.2835 63.661C24.0875 64.043 23.7551 64.2516 23.3232 64.2873L23.4878 66.2805C24.5539 66.1925 25.5271 65.6181 26.0628 64.5743C26.5841 63.5588 26.6224 62.2401 26.1787 60.74C25.2971 57.7594 22.4052 53.6562 16.2157 48.4857L14.9335 50.0206ZM71.2117 20.3321C67.4764 22.2298 64.8881 24.2261 63.2867 26.3479C61.6644 28.4975 61.0795 30.7464 61.3128 33.0418C61.5424 35.301 62.556 37.53 63.9883 39.702C65.4234 41.8785 67.3214 44.0608 69.3991 46.2311C71.4759 48.4004 73.7704 50.5963 75.9929 52.7757C78.2258 54.9652 80.3951 57.1465 82.2699 59.3265C86.0664 63.7413 88.4335 67.9066 87.9564 71.8805L89.9421 72.119C90.53 67.2228 87.6077 62.4662 83.7863 58.0225C81.852 55.7732 79.6303 53.5412 77.3932 51.3476C75.1458 49.1439 72.8915 46.987 70.8438 44.8481C68.7972 42.7102 66.9952 40.629 65.6579 38.6011C64.3178 36.5687 63.4868 34.6523 63.3025 32.8396C63.122 31.0631 63.5542 29.3136 64.8831 27.5527C66.233 25.7641 68.5301 23.9378 72.1176 22.1151L71.2117 20.3321ZM22.547 63.7892C21.195 61.5919 21.3121 57.4504 24.7284 52.5477C28.1117 47.6926 34.638 42.2781 45.5918 37.8001L44.835 35.9489C33.636 40.527 26.7512 46.1467 23.0875 51.4043C19.4569 56.6144 18.8913 61.6643 20.8436 64.8373L22.547 63.7892ZM45.627 37.7849C55.6767 33.2193 59.0462 26.0027 57.5838 19.8159C56.1412 13.7127 50.0705 9.09212 42.3054 9.62081L42.4413 11.6162C49.3303 11.1472 54.4423 15.2194 55.6375 20.276C56.8129 25.249 54.2754 31.6592 44.7998 35.964L45.627 37.7849ZM42.3054 9.62081C34.0857 10.1804 28.5287 15.7399 28.2836 22.1109C28.0359 28.55 33.2021 35.1302 44.9886 37.8489L45.4381 35.9001C34.1501 33.2963 30.0862 27.2802 30.2822 22.1878C30.4807 17.0273 35.0411 12.12 42.4413 11.6162L42.3054 9.62081ZM44.9676 37.8438C56.6536 40.8066 63.391 46.5801 66.337 52.3291C69.2948 58.1011 68.4504 63.804 65.11 67.0219L66.4976 68.4623C70.6216 64.4894 71.3743 57.7736 68.117 51.417C64.8478 45.0375 57.5577 38.9725 45.4591 35.9052L44.9676 37.8438ZM41.2434 25.6323C41.2772 26.3324 41.3771 27.0438 41.6409 27.6338C41.9217 28.2617 42.4276 28.8216 43.2427 28.9846L43.6348 27.0234C43.6219 27.0208 43.5613 27.029 43.4667 26.8174C43.3551 26.5679 43.2708 26.1522 43.2411 25.536L41.2434 25.6323ZM65.11 67.0219C65.0453 67.0842 64.8655 67.1938 64.4999 67.2515C64.1479 67.307 63.699 67.3011 63.1986 67.211C62.1901 67.0293 61.1127 66.5319 60.3479 65.7453C59.609 64.9854 59.1369 63.9364 59.3006 62.5172C59.469 61.0566 60.3243 59.1087 62.4764 56.6536L60.9724 55.3353C58.6717 57.9599 57.5459 60.2751 57.3137 62.2881C57.0768 64.3426 57.7843 65.9777 58.914 67.1395C60.0177 68.2748 61.4978 68.9368 62.844 69.1793C63.521 69.3013 64.1989 69.3237 64.8115 69.2271C65.4106 69.1326 66.0333 68.9096 66.4976 68.4623L65.11 67.0219ZM39.1416 20.9116C38.3459 20.9177 37.525 21.0029 36.8279 21.2241C36.1678 21.4336 35.3847 21.8423 35.0554 22.6652L36.9122 23.4083C36.9043 23.4281 36.9617 23.2799 37.4329 23.1304C37.8671 22.9926 38.4682 22.9168 39.1569 22.9116L39.1416 20.9116ZM40.4501 32.0611C41.2998 32.5565 42.6985 33.0316 44.1853 32.8167C45.7498 32.5906 47.2675 31.6188 48.2517 29.4877L46.4359 28.6492C45.7161 30.208 44.7487 30.7145 43.8992 30.8373C42.972 30.9713 42.0278 30.6658 41.4574 30.3333L40.4501 32.0611ZM62.5288 56.5885C65.1047 53.1006 69.3261 50.5942 73.6787 48.1599C75.8229 46.9606 78.0005 45.7758 79.9275 44.5212C81.8545 43.2666 83.6021 41.8982 84.8733 40.2946L83.306 39.0522C82.2313 40.408 80.6913 41.6373 78.8362 42.8451C76.9811 44.0529 74.8821 45.1952 72.7024 46.4143C68.4074 48.8165 63.792 51.5114 60.92 55.4004L62.5288 56.5885ZM84.8733 40.2946C85.9056 38.9923 85.9371 37.2084 85.7037 35.6483L83.7257 35.9441C83.9398 37.3757 83.7987 38.4306 83.306 39.0522L84.8733 40.2946ZM86.1229 27.3408C85.0227 25.2828 82.3391 23.0546 79.5631 21.5858C78.1541 20.8402 76.657 20.2549 75.2407 19.9823C73.8423 19.7132 72.403 19.7269 71.2117 20.3321L72.1176 22.1151C72.7483 21.7947 73.6756 21.7178 74.8628 21.9463C76.0321 22.1713 77.3393 22.6718 78.6277 23.3535C81.2464 24.7391 83.5291 26.7309 84.3592 28.2837L86.1229 27.3408ZM72.6567 29.8647C72.6806 29.6766 72.8241 29.3145 73.2492 29.062C73.6663 28.8142 74.4985 28.5897 76.0372 28.9742L76.522 27.0338C74.6528 26.5668 73.2367 26.7431 72.2278 27.3425C71.2271 27.937 70.7671 28.8681 70.6726 29.6131L72.6567 29.8647ZM85.7037 35.6483C85.6349 35.1884 85.6746 34.6426 85.791 33.9928C85.9093 33.3323 86.0832 32.6763 86.2554 31.9282C86.5694 30.5635 86.9123 28.8174 86.1229 27.3408L84.3592 28.2837C84.7471 29.0095 84.6421 30.0204 84.3063 31.4797C84.1536 32.1436 83.952 32.9162 83.8224 33.6402C83.6908 34.3748 83.6098 35.1692 83.7257 35.9441L85.7037 35.6483ZM43.2411 25.536C43.1875 24.4241 42.8375 23.2958 42.1665 22.4222C41.479 21.5271 40.4475 20.9017 39.1416 20.9116L39.1569 22.9116C39.7496 22.907 40.2188 23.1697 40.5803 23.6404C40.9584 24.1326 41.2056 24.8478 41.2434 25.6323L43.2411 25.536ZM23.3232 64.2873C23.0995 64.3058 22.7772 64.1634 22.547 63.7892L20.8436 64.8373C21.3498 65.66 22.3109 66.3777 23.4878 66.2805L23.3232 64.2873Z" fill="#0429D7"/>
<path d="M66.6949 17.676C65.8666 18.2673 65.0619 20.0886 68.4699 22.6432M62.0796 19.0952C62.3163 20.7509 63.4286 24.1334 65.9846 24.4173" stroke="#0429D7" stroke-width="2"/>
<path d="M46.8149 12.3537L47.6211 12.9453L46.8149 12.3537ZM35.961 12.76C36.3151 13.5563 37.0537 14.2239 37.8794 14.7116C38.7277 15.2125 39.7754 15.5889 40.8949 15.7397C43.1494 16.0432 45.7965 15.432 47.6211 12.9453L46.0086 11.7621C44.7092 13.533 42.8596 13.9862 41.1618 13.7576C40.305 13.6422 39.5126 13.3533 38.8965 12.9895C38.2578 12.6123 37.9077 12.2154 37.7885 11.9474L35.961 12.76ZM47.6211 12.9453C48.2298 12.1157 48.5006 11.228 48.3644 10.3324C48.2318 9.46016 47.7368 8.73749 47.1278 8.16548C45.931 7.04125 44.0405 6.25592 42.2232 5.79609C40.3956 5.3337 38.4404 5.15007 37.0205 5.37918C36.3442 5.48829 35.5765 5.72297 35.0846 6.27484C34.8137 6.57877 34.6415 6.96474 34.6258 7.40668C34.6107 7.8292 34.7409 8.22534 34.9319 8.57515L36.6874 7.61704C36.6121 7.47899 36.6258 7.43994 36.6245 7.47786C36.6224 7.53519 36.5941 7.58715 36.5777 7.60556C36.575 7.6086 36.6151 7.56461 36.7545 7.50635C36.8902 7.44964 37.0831 7.39493 37.339 7.35364C38.393 7.18358 40.0544 7.31039 41.7326 7.73499C43.4209 8.16216 44.9252 8.84038 45.7585 9.62321C46.1647 10.0047 46.3436 10.3465 46.3871 10.6329C46.4271 10.896 46.3762 11.2612 46.0086 11.7621L47.6211 12.9453ZM34.9319 8.57515C35.2807 9.21439 35.7807 9.721 36.4669 9.91695C37.1411 10.1095 37.7902 9.94285 38.3201 9.67806C39.3416 9.1676 40.3242 8.09248 41.1358 7.011C41.9739 5.89419 42.7342 4.62646 43.286 3.56943C43.5622 3.04037 43.7928 2.55143 43.9574 2.14942C44.0393 1.94928 44.1098 1.75868 44.1615 1.58829C44.205 1.44484 44.2649 1.22374 44.2649 1H42.2649C42.2649 0.90931 42.2831 0.890557 42.2476 1.00767C42.2203 1.09784 42.1743 1.22601 42.1064 1.39177C41.9714 1.72154 41.7694 2.15287 41.513 2.64387C40.9998 3.62697 40.2956 4.79852 39.5362 5.81054C38.7502 6.85789 38.0022 7.60114 37.4261 7.889C37.1572 8.02335 37.0409 8.00089 37.0161 7.99382C37.0034 7.99019 36.8711 7.9535 36.6874 7.61704L34.9319 8.57515Z" fill="#0429D7"/>
<path d="M77.3447 36.4806C78.5281 37.6633 81.6047 39.319 84.4447 36.4806" stroke="#0429D7" stroke-width="2"/>
<path d="M10.6041 33.6478L11.0895 32.7736L10.6041 33.6478ZM9.18453 29.911L10.121 30.2618L9.18453 29.911ZM13.511 28.7065L13.1007 29.6184L13.511 28.7065ZM10.1187 34.5221C11.0273 35.0266 11.9457 35.1787 12.7989 34.9952C13.6423 34.8138 14.3269 34.3251 14.8185 33.715C15.7729 32.5305 16.1234 30.7276 15.4469 29.2331L13.6249 30.0579C13.9559 30.789 13.7965 31.7957 13.2611 32.4602C13.0078 32.7746 12.7026 32.9702 12.3784 33.0399C12.0639 33.1076 11.6369 33.0775 11.0895 32.7736L10.1187 34.5221ZM5.65057 24.9075C4.55476 24.4695 3.50484 24.4744 2.63879 24.9379C1.78813 25.3931 1.27562 26.2055 1.06803 27.0651C0.656723 28.7682 1.36558 30.9175 3.37399 32.0327L4.34487 30.2842C3.15828 29.6253 2.80219 28.4039 3.01214 27.5346C3.11518 27.1079 3.33485 26.8337 3.58244 26.7012C3.81465 26.577 4.22905 26.4932 4.90816 26.7646L5.65057 24.9075ZM13.9212 27.7945C12.5958 27.1983 11.3662 27.1014 10.332 27.4738C9.29498 27.8471 8.59094 28.6449 8.24808 29.5602L10.121 30.2618C10.2821 29.8317 10.5866 29.5078 11.0095 29.3555C11.4351 29.2023 12.1168 29.1758 13.1007 29.6184L13.9212 27.7945ZM8.24808 29.5602C7.61738 31.244 8.17065 33.4405 10.1187 34.5221L11.0895 32.7736C10.0827 32.2145 9.80656 31.1012 10.121 30.2618L8.24808 29.5602ZM9.65657 29.0294C9.05386 28.7067 8.07393 28.2786 7.04248 28.0213C6.0697 27.7787 4.7827 27.6177 3.75649 28.1465L4.67257 29.9243C5.00585 29.7526 5.65874 29.7375 6.55853 29.9619C7.39966 30.1717 8.22498 30.5316 8.71249 30.7926L9.65657 29.0294ZM15.4469 29.2331C15.1159 28.5019 14.4905 28.0506 13.9212 27.7945L13.1007 29.6184C13.4018 29.7538 13.5624 29.9197 13.6249 30.0579L15.4469 29.2331Z" fill="#0429D7"/>
</svg>
