<svg width="88" height="54" viewBox="0 0 88 54" fill="none" xmlns="http://www.w3.org/2000/svg">
<path d="M2.13493 23.1862L1.42738 22.4795H1.42738L2.13493 23.1862ZM47.5895 19.7435L47.9839 20.6625L47.5895 19.7435ZM62.4865 19.7435L63.3337 20.2747L62.4865 19.7435ZM86.5509 10.9455L87.4054 11.4649L87.7026 10.976L87.4316 10.472L86.5509 10.9455ZM4.8084 44.6074L3.85497 44.909L3.86092 44.9278L3.86762 44.9464L4.8084 44.6074ZM9.01011 49.9627L9.45796 49.0686L9.37786 49.0284L9.29191 49.0032L9.01011 49.9627ZM43.4866 16.8358C35.7493 16.0674 27.0498 15.7163 19.4171 16.4119C15.6007 16.7597 12.023 17.3716 8.95338 18.3375C5.89332 19.3004 3.26783 20.6368 1.42738 22.4795L2.84248 23.8929C4.36718 22.3663 6.65509 21.1573 9.55368 20.2453C12.4427 19.3362 15.8689 18.7436 19.5986 18.4036C27.0582 17.7238 35.62 18.0644 43.289 18.826L43.4866 16.8358ZM23.9071 53.6403C28.4956 53.6403 35.3266 53.5451 41.3585 52.8203C44.3707 52.4583 47.2283 51.9344 49.5235 51.1682C51.7562 50.4229 53.7176 49.3658 54.5818 47.7586L52.8204 46.8114C52.3476 47.6905 51.0622 48.5461 48.8903 49.2711C46.7809 49.9752 44.0759 50.4793 41.1198 50.8346C35.215 51.5442 28.486 51.6403 23.9071 51.6403V53.6403ZM54.5818 47.7586C54.9789 47.0202 55.3231 45.9509 55.6135 44.7167C55.9081 43.4643 56.162 41.9773 56.3548 40.364C56.7401 37.1402 56.8878 33.3602 56.6119 29.8681C56.339 26.415 55.6414 23.0878 54.2236 20.8901C53.5021 19.7716 52.5503 18.8787 51.3126 18.4699C50.0665 18.0583 48.6807 18.187 47.1951 18.8246L47.9839 20.6625C49.1429 20.165 50.0152 20.1477 50.6854 20.369C51.364 20.5931 51.9868 21.1121 52.543 21.9743C53.6807 23.738 54.3512 26.6476 54.6181 30.0257C54.882 33.3649 54.7413 37.0108 54.3689 40.1266C54.1829 41.6831 53.9406 43.0944 53.6667 44.2586C53.3885 45.4409 53.0918 46.3066 52.8204 46.8114L54.5818 47.7586ZM47.1951 18.8246C46.0443 19.3185 45.1847 20.0189 44.6525 20.8815C44.1171 21.7494 43.9541 22.7165 44.0937 23.6559C44.3684 25.5051 45.7871 27.1855 47.735 28.1067C49.7178 29.0444 52.3045 29.235 55.0631 28.0905C57.8124 26.9499 60.6786 24.5093 63.3337 20.2747L61.6393 19.2123C59.1377 23.2019 56.5609 25.3038 54.2967 26.2431C52.0419 27.1786 50.0449 26.9867 48.59 26.2987C47.1001 25.5941 46.227 24.4056 46.072 23.362C45.9966 22.855 46.0844 22.3697 46.3546 21.9317C46.6282 21.4883 47.1294 21.0292 47.9839 20.6625L47.1951 18.8246ZM63.3337 20.2747C67.3267 13.9064 72.0031 11.2499 76.1351 10.4348C80.3088 9.61149 84.0187 10.6486 86.0542 11.8135L87.0476 10.0776C84.6267 8.6923 80.4297 7.54909 75.748 8.47262C71.0245 9.40438 65.8969 12.4219 61.6393 19.2123L63.3337 20.2747ZM80.3225 1.47357L85.6701 11.4191L87.4316 10.472L82.084 0.526425L80.3225 1.47357ZM85.6964 10.4261L80.3487 19.2241L82.0578 20.2629L87.4054 11.4649L85.6964 10.4261ZM1.42738 22.4795C0.961509 22.946 0.754724 23.6352 0.645216 24.2569C0.528202 24.9212 0.489314 25.717 0.502425 26.5825C0.528719 28.3181 0.76734 30.4728 1.11531 32.7071C1.81148 37.177 2.96783 42.1046 3.85497 44.909L5.76183 44.3057C4.91049 41.6146 3.77499 36.7879 3.09149 32.3993C2.74963 30.2043 2.52646 28.1536 2.5022 26.5522C2.49003 25.7491 2.52867 25.0934 2.6149 24.6038C2.65781 24.3602 2.70879 24.1798 2.75945 24.0532C2.81163 23.9228 2.84872 23.8866 2.84248 23.8929L1.42738 22.4795ZM8.56227 50.8568C9.11047 51.1314 10.2099 51.4273 11.4461 51.711C12.7329 52.0063 14.3082 52.3179 15.9082 52.6019C19.071 53.1632 22.4624 53.6403 23.9071 53.6403V51.6403C22.6687 51.6403 19.4523 51.1996 16.2577 50.6327C14.679 50.3525 13.1382 50.0473 11.8935 49.7617C10.5981 49.4644 9.75043 49.2151 9.45796 49.0686L8.56227 50.8568ZM12.4816 33.7486L46.4773 32.6011L46.4099 30.6022L12.4141 31.7498L12.4816 33.7486ZM12.4479 42.1647H35.7483V40.1647H12.4479V42.1647ZM3.86762 44.9464C4.16738 45.7782 4.74493 47.0453 5.52707 48.1986C6.28045 49.3094 7.36012 50.5203 8.72831 50.9221L9.29191 49.0032C8.62757 48.8081 7.88322 48.1095 7.1823 47.076C6.51013 46.0849 6.00309 44.9729 5.74917 44.2683L3.86762 44.9464Z" fill="#0429D7"/>
</svg>
