<svg width="70" height="61" viewBox="0 0 70 61" fill="none" xmlns="http://www.w3.org/2000/svg">
<path d="M29.1525 54.0943H33.8871M40.8475 54.0943H33.8871M16.8226 0V6.66916M16.8226 6.66916H11.9194C9.71022 6.66916 7.91935 8.46002 7.91935 10.6692V14.0793M16.8226 6.66916H24.9839M24.9839 0V6.66916M24.9839 6.66916H42.7903M33.8871 0V5.92815M42.7903 0V6.66916M42.7903 6.66916H58.0806C60.2898 6.66916 62.0806 8.46003 62.0806 10.6692V50.0943C62.0806 52.3035 60.2898 54.0943 58.0806 54.0943H33.8871M51.6935 0V5.92815M0.5 14.0793H7.91935M7.91935 14.0793V22.9716M0.5 22.9716H7.91935M7.91935 22.9716V30.3818M0.5 30.3818H7.91935M7.91935 30.3818V37.7919M0.5 37.7919H7.91935M7.91935 37.7919V45.2021M0.5 45.2021H7.91935M7.91935 45.2021V50.0943C7.91935 52.3035 9.71022 54.0943 11.9194 54.0943H33.8871M62.0806 14.8204H69.5M62.0806 22.2305H69.5M62.0806 29.6407H69.5M62.0806 37.7919H69.5M62.0806 45.2021H69.5M16.2881 54.0943V60.4245M23.3051 54.0943V60.4245M44.3559 54.0943V61M53.7119 54.0943V60.4245M33.8871 54.0943V60.4245M51.6935 22.9906V38.0094C51.6935 40.2186 49.9027 42.0094 47.6935 42.0094H22.0424C19.8332 42.0094 18.0424 40.2186 18.0424 38.0094V22.9906C18.0424 20.7814 19.8332 18.9906 22.0424 18.9906H47.6935C49.9027 18.9906 51.6935 20.7814 51.6935 22.9906Z" stroke="#0429D7" stroke-width="2"/>
</svg>
