<svg width="61" height="56" viewBox="0 0 61 56" fill="none" xmlns="http://www.w3.org/2000/svg">
<path d="M29.3491 10.0428V11.0428V10.0428ZM39.0541 31.3759L38.2888 30.7323L39.0541 31.3759ZM33.5211 39.3723L32.5235 39.3023L32.5223 39.3205L32.5217 39.3387L33.5211 39.3723ZM24.0764 47.42L23.0905 47.2522L23.0119 47.7142L23.3166 48.0703L24.0764 47.42ZM25.2476 39.3723L24.2658 39.1823L24.253 39.2484L24.2492 39.3157L25.2476 39.3723ZM31.2432 39.9833H32.2432V38.9833H31.2432V39.9833ZM30.1458 28.4426L31.1376 28.5711L31.182 28.2278L31.0048 27.9306L30.1458 28.4426ZM20.5612 28.4426L19.6704 28.8972L20.5612 28.4426ZM33.2464 49.2987L33.1844 50.2967L34.1909 50.3593L34.245 49.3523L33.2464 49.2987ZM25.2476 1.72548L25.1656 0.728849L25.2476 1.72548ZM58.2384 37.0406L59.1803 37.3765L59.1851 37.3632L59.1894 37.3498L58.2384 37.0406ZM3.58428 54.5L3.02301 53.6724L0.328063 55.5H3.58428V54.5ZM12.3609 48.548L12.9221 49.3756L14.3909 48.3796L12.7781 47.6392L12.3609 48.548ZM20.5612 51.7221L20.7238 50.7354L20.5087 50.7L20.2983 50.7573L20.5612 51.7221ZM2.78666 38.231L1.80573 38.4253L2.78666 38.231ZM29.3491 11.0428C33.5836 11.0428 36.3493 12.08 38.1211 13.567C39.889 15.0507 40.7867 17.0823 41.0914 19.3113C41.3976 21.5514 41.0956 23.9473 40.4984 26.0434C39.8966 28.1555 39.0264 29.8551 38.2888 30.7323L39.8195 32.0195C40.8012 30.8521 41.7746 28.8627 42.4218 26.5915C43.0735 24.3043 43.4259 21.6225 43.073 19.0405C42.7185 16.4473 41.6438 13.9124 39.4069 12.035C37.1739 10.161 33.9027 9.04277 29.3491 9.04277V11.0428ZM38.2888 30.7323C37.9461 31.1397 37.4614 31.6332 36.8749 32.239C36.3026 32.8301 35.6565 33.5054 35.047 34.2296C33.8616 35.638 32.6565 37.4088 32.5235 39.3023L34.5186 39.4424C34.6035 38.2342 35.4219 36.8902 36.5772 35.5175C37.1379 34.8512 37.7414 34.2193 38.3118 33.6301C38.8681 33.0556 39.4192 32.4955 39.8195 32.0195L38.2888 30.7323ZM25.0622 47.5878C25.3502 45.8956 26.0257 43.3115 26.246 39.4289L24.2492 39.3157C24.0374 43.0494 23.4065 45.3953 23.0905 47.2522L25.0622 47.5878ZM25.2476 40.3723C25.8001 40.3723 26.9746 40.513 28.2272 40.67C29.3951 40.8164 30.6718 40.9833 31.2432 40.9833V38.9833C30.8348 38.9833 29.7451 38.8447 28.4759 38.6856C27.2914 38.5371 25.958 38.3723 25.2476 38.3723V40.3723ZM30.2432 39.9833C30.2432 40.4576 29.9501 40.7378 29.6708 40.8309C29.5188 40.8815 29.4846 40.8394 29.5494 40.8699C29.5928 40.8904 29.6505 40.9335 29.6924 41.0023C29.7333 41.0695 29.7304 41.1135 29.7304 41.0955H27.7304C27.7304 41.7983 28.0855 42.3909 28.6967 42.679C29.2327 42.9317 29.8267 42.887 30.3029 42.7284C31.28 42.4029 32.2432 41.4378 32.2432 39.9833H30.2432ZM29.7304 41.0955C29.7304 40.4802 29.9555 38.3045 30.2545 35.7338C30.5487 33.2039 30.902 30.3898 31.1376 28.5711L29.1541 28.3142C28.9178 30.1387 28.5634 32.9618 28.2679 35.5028C27.9771 38.0031 27.7304 40.3322 27.7304 41.0955H29.7304ZM21.4519 27.9881C19.9309 25.0075 19.4205 20.6815 20.5666 17.1514C21.1338 15.4042 22.0936 13.8893 23.4969 12.8105C24.8935 11.7369 26.7967 11.0428 29.3491 11.0428V9.04277C26.415 9.04277 24.0683 9.84858 22.278 11.2249C20.4945 12.596 19.3307 14.4811 18.6643 16.5338C17.3431 20.6035 17.9253 25.4775 19.6704 28.8972L21.4519 27.9881ZM23.3166 48.0703C23.4839 48.2657 23.6963 48.3702 23.7709 48.4068C23.8845 48.4627 24.0108 48.5127 24.1344 48.5572C24.3843 48.6471 24.7008 48.7415 25.0533 48.8364C25.7628 49.0276 26.6865 49.2393 27.666 49.4402C29.6101 49.839 31.8694 50.215 33.1844 50.2967L33.3085 48.3006C32.1416 48.228 29.9975 47.8768 28.0679 47.481C27.1105 47.2846 26.2297 47.0821 25.5735 46.9053C25.2432 46.8163 24.9866 46.7383 24.8113 46.6753C24.7224 46.6432 24.6731 46.6217 24.653 46.6119C24.5938 46.5828 24.7142 46.6274 24.8361 46.7697L23.3166 48.0703ZM31.0048 27.9306C30.7297 27.4692 30.3909 26.8924 30.1005 26.281C29.805 25.659 29.5915 25.066 29.5269 24.5732C29.4623 24.0808 29.5625 23.8534 29.6762 23.7344C29.8092 23.5952 30.1974 23.3524 31.2432 23.3524V21.3524C29.962 21.3524 28.9116 21.6394 28.23 22.3529C27.5292 23.0865 27.439 24.0346 27.5439 24.8334C27.6486 25.6318 27.9645 26.4456 28.2939 27.1391C28.6284 27.8432 29.0101 28.4905 29.2869 28.9547L31.0048 27.9306ZM25.3296 2.72211C34.8462 1.93906 41.678 3.28923 46.5518 5.77933C51.4114 8.26217 54.3995 11.9161 56.1764 15.8926C59.7619 23.9162 58.4138 33.2668 57.2874 36.7314L59.1894 37.3498C60.4109 33.5926 61.8553 23.6986 58.0024 15.0766C56.0602 10.7302 52.7713 6.7111 47.4618 3.99832C42.1664 1.29281 34.9369 -0.0751572 25.1656 0.728849L25.3296 2.72211ZM4.14556 55.3276L12.9221 49.3756L11.7996 47.7204L3.02301 53.6724L4.14556 55.3276ZM26.2293 39.5623C26.3966 38.6983 26.2124 37.7304 25.918 36.8119C25.616 35.8701 25.1546 34.8526 24.6406 33.8389C24.125 32.8218 23.5398 31.7768 22.9813 30.7831C22.4179 29.7808 21.8847 28.8362 21.4519 27.9881L19.6704 28.8972C20.1256 29.7892 20.6817 30.7737 21.2378 31.7631C21.7988 32.761 22.3634 33.7701 22.8568 34.7433C23.3519 35.7197 23.7588 36.6285 24.0135 37.4226C24.2756 38.2401 24.3364 38.8176 24.2658 39.1823L26.2293 39.5623ZM32.5217 39.3387C32.3347 44.8906 32.5238 44.1048 32.2479 49.245L34.245 49.3523C34.5183 44.2611 34.3413 44.7286 34.5205 39.406L32.5217 39.3387ZM57.2965 36.7047C55.6651 41.2798 54.1611 45.8818 49.3979 48.8547C44.6101 51.8429 36.303 53.3036 20.7238 50.7354L20.3985 52.7088C36.1137 55.2993 45.0347 53.9355 50.4568 50.5513C55.9035 47.1519 57.5909 41.8338 59.1803 37.3765L57.2965 36.7047ZM20.2983 50.7573C15.2135 52.1428 12.1132 52.8245 9.75326 53.1629C7.40864 53.4991 5.77546 53.5 3.58428 53.5V55.5C5.78139 55.5 7.53916 55.5009 10.0372 55.1426C12.5199 54.7866 15.7138 54.0793 20.8241 52.6869L20.2983 50.7573ZM12.7781 47.6392C12.119 47.3366 11.4971 47.0671 10.9213 46.8166C10.3415 46.5644 9.81174 46.333 9.31673 46.099C8.32696 45.631 7.52493 45.1746 6.84452 44.5935C5.52683 43.4683 4.50003 41.733 3.76758 38.0366L1.80573 38.4253C2.5831 42.3484 3.75032 44.5812 5.54574 46.1144C6.42189 46.8626 7.40618 47.408 8.46186 47.9071C8.98958 48.1566 9.54738 48.4001 10.1235 48.6507C10.7036 48.903 11.3062 49.1642 11.9437 49.4568L12.7781 47.6392ZM3.76758 38.0366C2.49156 31.597 1.57038 23.2481 4.11046 16.2847C5.37061 12.8301 7.48056 9.7228 10.8357 7.34137C14.1978 4.95505 18.8729 3.25338 25.3296 2.72211L25.1656 0.728849C18.442 1.28208 13.3992 3.06931 9.67811 5.71044C5.95016 8.35647 3.61192 11.8152 2.23156 15.5993C-0.509355 23.1133 0.51919 31.9327 1.80573 38.4253L3.76758 38.0366Z" fill="#0429D7"/>
</svg>
