<svg width="63" height="77" viewBox="0 0 63 77" fill="none" xmlns="http://www.w3.org/2000/svg">
<path d="M54.2312 49.3234L53.3761 49.8419L55.1041 48.8355L54.2312 49.3234ZM42.4162 49.8179L42.3981 50.8178L42.4162 49.8179ZM48.0711 53.6332L47.508 52.8068L48.0711 53.6332ZM23.8782 7.13471L24.4141 7.97896L23.8782 7.13471ZM29.4424 8.43793L28.5873 8.95638L29.4424 8.43793ZM4.59232 23.887L5.45405 23.3797L4.59232 23.887ZM5.90044 18.547L5.36451 17.7028L5.90044 18.547ZM40.6943 55.9404L40.0871 56.735L40.6943 55.9404ZM41.2698 56.264L40.9342 57.2061L41.2698 56.264ZM57.1657 47.8442L58.029 47.3394L57.1657 47.8442ZM30.4025 4.06302L56.3025 48.349L58.029 47.3394L32.1289 3.05334L30.4025 4.06302ZM55.1058 52.8126C51.7726 54.9778 48.1822 57.7771 44.8998 60.3647C41.5891 62.9745 38.622 65.3436 36.4614 66.7258L37.5391 68.4106C39.8058 66.9606 42.8748 64.5077 46.1379 61.9353C49.4293 59.3407 52.9505 56.5976 56.1953 54.4899L55.1058 52.8126ZM34.018 66.2515C28.6774 59.6131 14.6121 38.9339 5.45405 23.3797L3.73059 24.3944C12.9171 39.9969 27.0372 60.765 32.4597 67.5052L34.018 66.2515ZM6.43638 19.3913L24.4141 7.97896L23.3423 6.29044L5.36451 17.7028L6.43638 19.3913ZM28.5873 8.95638L53.3761 49.8419L55.0863 48.805L30.2975 7.91948L28.5873 8.95638ZM41.3015 55.1458C40.5107 54.5416 40.1645 53.9751 40.0374 53.5234C39.9123 53.079 39.9717 52.6513 40.1681 52.2547C40.5937 51.3951 41.5981 50.8033 42.3981 50.8178L42.4343 48.8181C40.8158 48.7888 39.124 49.856 38.3757 51.3673C37.9851 52.1562 37.8382 53.0921 38.1122 54.0654C38.3842 55.0315 39.0427 55.9369 40.0871 56.735L41.3015 55.1458ZM42.3981 50.8178C43.1957 50.8322 44.1352 51.4661 45.1642 52.9732C46.1582 54.4289 47.0604 56.4476 47.8497 58.6502C49.4246 63.0451 50.4652 67.9237 50.9167 69.9105L52.867 69.4672C52.4239 67.5175 51.3567 62.5081 49.7325 57.9755C48.9222 55.7143 47.952 53.5093 46.8159 51.8454C45.7149 50.2329 44.2667 48.8512 42.4343 48.8181L42.3981 50.8178ZM40.9342 57.2061C42.1376 57.6347 43.3228 57.4325 44.5378 56.9103C45.7255 56.3998 47.0636 55.5297 48.6341 54.4596L47.508 52.8068C45.915 53.8922 44.7308 54.6504 43.748 55.0728C42.7924 55.4836 42.1587 55.5191 41.6053 55.322L40.9342 57.2061ZM48.6341 54.4596C50.5129 53.1795 52.0369 52.0288 53.0926 51.2401C53.6289 50.8395 54.0222 50.549 54.2879 50.3725C54.352 50.33 54.402 50.2984 54.44 50.276C54.4804 50.2522 54.4941 50.2463 54.4879 50.2491C54.484 50.2508 54.4657 50.2589 54.4362 50.2682C54.4095 50.2765 54.3501 50.2934 54.2683 50.3006C54.1257 50.3132 53.6321 50.301 53.3584 49.8114L55.1041 48.8355C54.8136 48.3158 54.2862 48.2914 54.0932 48.3083C53.8998 48.3253 53.7442 48.3908 53.6729 48.4227C53.5083 48.4961 53.3339 48.6052 53.1812 48.7066C52.8598 48.9202 52.4181 49.2475 51.8956 49.6379C50.8335 50.4313 49.3446 51.5554 47.508 52.8068L48.6341 54.4596ZM16.3364 17.2537L21.4184 14.2406L20.3984 12.5202L15.3164 15.5333L16.3364 17.2537ZM24.4141 7.97896C25.8333 7.07804 27.7157 7.51894 28.5873 8.95638L30.2975 7.91948C28.8449 5.52373 25.7076 4.78892 23.3423 6.29044L24.4141 7.97896ZM5.45405 23.3797C4.64951 22.0132 5.08152 20.2513 6.43638 19.3913L5.36451 17.7028C3.11527 19.1306 2.36919 22.0822 3.73059 24.3944L5.45405 23.3797ZM36.4614 66.7258C35.664 67.2359 34.6726 67.0651 34.018 66.2515L32.4597 67.5052C33.692 69.0369 35.8008 69.5226 37.5391 68.4106L36.4614 66.7258ZM40.0871 56.735C40.3188 56.912 40.6029 57.088 40.9342 57.2061L41.6053 55.322C41.5219 55.2923 41.4197 55.2362 41.3015 55.1458L40.0871 56.735ZM56.3025 48.349C57.1668 49.8268 56.6376 51.8177 55.1058 52.8126L56.1953 54.4899C58.5251 52.9765 59.4893 49.8365 58.029 47.3394L56.3025 48.349Z" fill="#0429D7"/>
</svg>
