<svg width="102" height="79" viewBox="0 0 102 79" fill="none" xmlns="http://www.w3.org/2000/svg">
<path d="M80.8714 23.3554L79.8322 23.2193L81.9109 23.4171L80.8714 23.3554ZM67.5637 24.251L68.5792 24.5506L68.5792 24.5506L67.5637 24.251ZM71.8244 26.6389L72.3946 27.4884L71.8244 26.6389ZM73.9766 22.9429L74.024 23.8997L73.9766 22.9429ZM75.2702 62.5388L75.3329 63.4963L75.2702 62.5388ZM79.1759 59.2536L80.2151 59.3898L79.1759 59.2536ZM16.5441 56.3737L15.504 56.2661L16.5441 56.3737ZM20.9249 60.5774L20.8621 59.6199L20.9249 60.5774ZM85.9969 24.3322L87.0362 24.4661L85.9969 24.3322ZM84.0994 43.4371L84.9576 24.1983L87.0362 24.4661L86.178 43.7048L84.0994 43.4371ZM81.2239 20.6428C73.9661 20.4581 61.4242 19.7641 49.506 19.109C37.5599 18.4523 26.2628 17.8362 21.4316 17.8004L21.2415 15.8842C26.1417 15.9204 37.5142 16.5414 49.4232 17.196C61.3601 17.8522 73.8588 18.5435 81.0744 18.7272L81.2239 20.6428ZM19.697 19.1545C18.7393 25.571 17.7674 43.5982 17.5841 56.4813L15.504 56.2661C15.6874 43.3751 16.6596 25.2487 17.6354 18.7108L19.697 19.1545ZM20.8621 59.6199L75.2074 61.5814L75.3329 63.4963L20.9876 61.5348L20.8621 59.6199ZM78.1367 59.1175L79.8322 23.2193L81.9106 23.4915L80.2151 59.3898L78.1367 59.1175ZM68.5792 24.5506C68.4739 24.9755 68.5433 25.2497 68.6328 25.4169C68.7238 25.5868 68.8872 25.7427 69.145 25.8636C69.6936 26.121 70.5467 26.1496 71.2542 25.7893L72.3946 27.4884C71.1727 28.1108 69.5997 28.1394 68.3524 27.5542C67.7123 27.2538 67.1353 26.7777 66.7843 26.1225C66.4319 25.4645 66.3578 24.7204 66.5483 23.9514L68.5792 24.5506ZM71.2542 25.7893C71.6878 25.5685 72.0275 25.1151 72.2027 24.4048C72.3772 23.6975 72.3638 22.8174 72.1695 21.914C71.9754 21.0118 71.613 20.1436 71.147 19.4618C70.6732 18.7688 70.1576 18.3592 69.6886 18.1999L70.2322 16.409C71.3609 16.7924 72.2434 17.6345 72.8764 18.5603C73.5171 19.4974 73.9703 20.6152 74.2089 21.7245C74.4473 22.8325 74.4839 23.9892 74.2339 25.0024C73.9847 26.0126 73.4257 26.9633 72.3946 27.4884L71.2542 25.7893ZM66.5483 23.9514C66.7032 23.3263 67.0394 22.829 67.5661 22.4795C68.0696 22.1453 68.682 21.9898 69.3067 21.9152C70.5102 21.7715 72.146 21.8975 73.9292 21.9861L74.024 23.8997C72.0893 23.8036 70.7373 23.701 69.7732 23.8162C69.314 23.871 69.0477 23.9668 68.8887 24.0723C68.7529 24.1624 68.6429 24.2931 68.5792 24.5506L66.5483 23.9514ZM73.9292 21.9861C76.0161 22.0897 77.7623 22.2465 78.9675 22.3495C79.58 22.4019 80.0269 22.4381 80.3194 22.4498C80.3899 22.4526 80.4443 22.4537 80.4848 22.4536C80.5279 22.4534 80.5422 22.4519 80.5372 22.4524C80.534 22.4527 80.5172 22.4544 80.4913 22.4594C80.4681 22.464 80.4165 22.4752 80.3522 22.5006C80.2884 22.5259 79.8104 22.728 79.8319 23.2937L81.9109 23.4171C81.9334 24.0086 81.4346 24.2318 81.329 24.2736C81.1751 24.3345 81.0271 24.3517 80.9561 24.3586C80.7934 24.3743 80.6051 24.3711 80.4359 24.3643C80.0812 24.3501 79.5776 24.3086 78.9811 24.2576C77.7685 24.1539 76.0634 24.0009 74.024 23.8997L73.9292 21.9861ZM75.2074 61.5814C76.8031 61.639 78.0679 60.5752 78.1367 59.1175L80.2151 59.3898C80.1003 61.8193 77.9924 63.5923 75.3329 63.4963L75.2074 61.5814ZM17.5841 56.4813C17.5609 58.1126 19.0635 59.555 20.8621 59.6199L20.9876 61.5348C18.0019 61.4271 15.4648 59.0222 15.504 56.2661L17.5841 56.4813ZM21.4316 17.8004C20.4871 17.7935 19.8223 18.315 19.697 19.1545L17.6354 18.7108C17.892 16.9919 19.3431 15.8701 21.2415 15.8842L21.4316 17.8004ZM84.9576 24.1983C85.0379 22.3972 83.2617 20.6947 81.2239 20.6428L81.0744 18.7272C84.2817 18.8088 87.1698 21.4705 87.0362 24.4661L84.9576 24.1983Z" fill="#0429D7"/>
<path d="M33.158 44.2495L66.6623 45.7867C68.8728 45.8881 70.5477 47.764 70.3997 49.9728L70.1918 53.077C70.0451 55.2656 68.1625 56.9606 65.9711 56.877L31.0241 55.5438C28.819 55.4597 27.1315 53.6072 27.2529 51.4038L28.4255 30.1216C28.5473 27.911 30.443 26.1867 32.655 26.2744L46.2736 26.8145C48.4761 26.9019 50.16 28.7533 50.0387 30.9544L49.7732 35.7734C49.6516 37.9792 47.7635 39.7018 45.5558 39.621L26.7506 38.9325C24.5163 38.8507 22.8166 36.9548 22.9776 34.7242L23.6053 26.0302C23.7632 23.842 25.6548 22.1565 27.8457 22.2517L63.8345 23.8164" stroke="#0429D7" stroke-width="2"/>
</svg>
